<?xml version="1.0" encoding="us-ascii" standalone="no"?><svg xmlns="http://www.w3.org/2000/svg" xmlns:xlink="http://www.w3.org/1999/xlink" contentStyleType="text/css" height="701px" preserveAspectRatio="none" style="width:552px;height:701px;background:#FFFFFF;" version="1.1" viewBox="0 0 552 701" width="552px" zoomAndPan="magnify"><defs/><g><!--class usuario--><g id="elem_usuario"><rect codeLine="1" fill="#F1F1F1" height="162.0781" id="usuario" rx="2.5" ry="2.5" style="stroke:#181818;stroke-width:0.5;" width="150" x="182" y="7"/><ellipse cx="226.75" cy="23" fill="#ADD1B2" rx="11" ry="11" style="stroke:#181818;stroke-width:1.0;"/><path d="M230.8594,29 L223.1406,29 L223.1406,16.6094 L230.8594,16.6094 L230.8594,18.7656 L225.5938,18.7656 L225.5938,21.4375 L230.3594,21.4375 L230.3594,23.5938 L225.5938,23.5938 L225.5938,26.8438 L230.8594,26.8438 L230.8594,29 Z " fill="#000000"/><text fill="#000000" font-family="sans-serif" font-size="14" lengthAdjust="spacing" textLength="52" x="247.25" y="27.8467">Usuario</text><line style="stroke:#181818;stroke-width:0.5;" x1="183" x2="331" y1="39" y2="39"/><text fill="#000000" font-family="sans-serif" font-size="14" lengthAdjust="spacing" textLength="55" x="188" y="55.9951">Nombre</text><text fill="#000000" font-family="sans-serif" font-size="14" lengthAdjust="spacing" textLength="82" x="188" y="72.292">Descripci&#243;n</text><text fill="#000000" font-family="sans-serif" font-size="14" lengthAdjust="spacing" textLength="110" x="188" y="88.5889">Imagen de Perfil</text><text fill="#000000" font-family="sans-serif" font-size="14" lengthAdjust="spacing" textLength="138" x="188" y="104.8857">N&#250;mero de tel&#233;fono</text><text fill="#000000" font-family="sans-serif" font-size="14" lengthAdjust="spacing" textLength="80" x="188" y="121.1826">Contrase&#241;a</text><line style="stroke:#181818;stroke-width:0.5;" x1="183" x2="331" y1="128.4844" y2="128.4844"/><text fill="#000000" font-family="sans-serif" font-size="14" lengthAdjust="spacing" textLength="105" x="188" y="145.4795">ID_Usuario (PK)</text><text fill="#000000" font-family="sans-serif" font-size="14" lengthAdjust="spacing" textLength="71" x="188" y="161.7764">Correo (U)</text></g><!--class producto--><g id="elem_producto"><rect codeLine="10" fill="#F1F1F1" height="243.5625" id="producto" rx="2.5" ry="2.5" style="stroke:#181818;stroke-width:0.5;" width="136" x="129" y="229.08"/><ellipse cx="162.45" cy="245.08" fill="#ADD1B2" rx="11" ry="11" style="stroke:#181818;stroke-width:1.0;"/><path d="M166.5594,251.08 L158.8406,251.08 L158.8406,238.6894 L166.5594,238.6894 L166.5594,240.8456 L161.2938,240.8456 L161.2938,243.5175 L166.0594,243.5175 L166.0594,245.6738 L161.2938,245.6738 L161.2938,248.9238 L166.5594,248.9238 L166.5594,251.08 Z " fill="#000000"/><text fill="#000000" font-family="sans-serif" font-size="14" lengthAdjust="spacing" textLength="63" x="180.55" y="249.9267">Producto</text><line style="stroke:#181818;stroke-width:0.5;" x1="130" x2="264" y1="261.08" y2="261.08"/><text fill="#000000" font-family="sans-serif" font-size="14" lengthAdjust="spacing" textLength="124" x="135" y="278.0751">Categor&#237;a General</text><text fill="#000000" font-family="sans-serif" font-size="14" lengthAdjust="spacing" textLength="93" x="135" y="294.372">SubCategor&#237;a</text><text fill="#000000" font-family="sans-serif" font-size="14" lengthAdjust="spacing" textLength="55" x="135" y="310.6689">Nombre</text><text fill="#000000" font-family="sans-serif" font-size="14" lengthAdjust="spacing" textLength="82" x="135" y="326.9657">Descripci&#243;n</text><text fill="#000000" font-family="sans-serif" font-size="14" lengthAdjust="spacing" textLength="48" x="135" y="343.2626">Estado</text><text fill="#000000" font-family="sans-serif" font-size="14" lengthAdjust="spacing" textLength="43" x="135" y="359.5595">Precio</text><text fill="#000000" font-family="sans-serif" font-size="14" lengthAdjust="spacing" textLength="35" x="135" y="375.8564">Peso</text><text fill="#000000" font-family="sans-serif" font-size="14" lengthAdjust="spacing" textLength="44" x="135" y="392.1532">Ancho</text><text fill="#000000" font-family="sans-serif" font-size="14" lengthAdjust="spacing" textLength="38" x="135" y="408.4501">Largo</text><text fill="#000000" font-family="sans-serif" font-size="14" lengthAdjust="spacing" textLength="39" x="135" y="424.747">Altura</text><line style="stroke:#181818;stroke-width:0.5;" x1="130" x2="264" y1="432.0488" y2="432.0488"/><text fill="#000000" font-family="sans-serif" font-size="14" lengthAdjust="spacing" textLength="116" x="135" y="449.0439">ID_Producto (PK)</text><text fill="#000000" font-family="sans-serif" font-size="14" lengthAdjust="spacing" textLength="104" x="135" y="465.3407">ID_Usuario (FK)</text></g><!--class solicitud--><g id="elem_solicitud"><rect codeLine="24" fill="#F1F1F1" height="162.0781" id="solicitud" rx="2.5" ry="2.5" style="stroke:#181818;stroke-width:0.5;" width="160" x="7" y="532.64"/><ellipse cx="53.75" cy="548.64" fill="#ADD1B2" rx="11" ry="11" style="stroke:#181818;stroke-width:1.0;"/><path d="M57.8594,554.64 L50.1406,554.64 L50.1406,542.2494 L57.8594,542.2494 L57.8594,544.4056 L52.5938,544.4056 L52.5938,547.0775 L57.3594,547.0775 L57.3594,549.2338 L52.5938,549.2338 L52.5938,552.4838 L57.8594,552.4838 L57.8594,554.64 Z " fill="#000000"/><text fill="#000000" font-family="sans-serif" font-size="14" lengthAdjust="spacing" textLength="58" x="74.25" y="553.4867">Solicitud</text><line style="stroke:#181818;stroke-width:0.5;" x1="8" x2="166" y1="564.64" y2="564.64"/><text fill="#000000" font-family="sans-serif" font-size="14" lengthAdjust="spacing" textLength="148" x="13" y="581.6351">Productos solicitados</text><text fill="#000000" font-family="sans-serif" font-size="14" lengthAdjust="spacing" textLength="82" x="13" y="597.932">Descripci&#243;n</text><text fill="#000000" font-family="sans-serif" font-size="14" lengthAdjust="spacing" textLength="119" x="13" y="614.2289">Fecha de reserva</text><text fill="#000000" font-family="sans-serif" font-size="14" lengthAdjust="spacing" textLength="48" x="13" y="630.5257">Estado</text><line style="stroke:#181818;stroke-width:0.5;" x1="8" x2="166" y1="637.8275" y2="637.8275"/><text fill="#000000" font-family="sans-serif" font-size="14" lengthAdjust="spacing" textLength="111" x="13" y="654.8226">ID_Solicitud (PK)</text><text fill="#000000" font-family="sans-serif" font-size="14" lengthAdjust="spacing" textLength="104" x="13" y="671.1195">ID_Usuario (FK)</text><text fill="#000000" font-family="sans-serif" font-size="14" lengthAdjust="spacing" textLength="115" x="13" y="687.4164">ID_Producto (FK)</text></g><!--class chat--><g id="elem_chat"><rect codeLine="33" fill="#F1F1F1" height="113.1875" id="chat" rx="2.5" ry="2.5" style="stroke:#181818;stroke-width:0.5;" width="174" x="371" y="294.27"/><ellipse cx="437.75" cy="310.27" fill="#ADD1B2" rx="11" ry="11" style="stroke:#181818;stroke-width:1.0;"/><path d="M441.8594,316.27 L434.1406,316.27 L434.1406,303.8794 L441.8594,303.8794 L441.8594,306.0356 L436.5938,306.0356 L436.5938,308.7075 L441.3594,308.7075 L441.3594,310.8638 L436.5938,310.8638 L436.5938,314.1138 L441.8594,314.1138 L441.8594,316.27 Z " fill="#000000"/><text fill="#000000" font-family="sans-serif" font-size="14" lengthAdjust="spacing" textLength="32" x="458.25" y="315.1167">Chat</text><line style="stroke:#181818;stroke-width:0.5;" x1="372" x2="544" y1="326.27" y2="326.27"/><text fill="#000000" font-family="sans-serif" font-size="14" lengthAdjust="spacing" textLength="162" x="377" y="343.2651">&#218;ltima hora de mensaje</text><line style="stroke:#181818;stroke-width:0.5;" x1="372" x2="544" y1="350.5669" y2="350.5669"/><text fill="#000000" font-family="sans-serif" font-size="14" lengthAdjust="spacing" textLength="85" x="377" y="367.562">ID_Chat (PK)</text><text fill="#000000" font-family="sans-serif" font-size="14" lengthAdjust="spacing" textLength="113" x="377" y="383.8589">ID_Usuario1 (FK)</text><text fill="#000000" font-family="sans-serif" font-size="14" lengthAdjust="spacing" textLength="113" x="377" y="400.1557">ID_Usuario2 (FK)</text></g><!--class rese?a--><g id="elem_rese&#241;a"><rect codeLine="39" fill="#F1F1F1" height="129.4844" id="rese&#241;a" rx="2.5" ry="2.5" style="stroke:#181818;stroke-width:0.5;" width="127" x="223.5" y="548.94"/><ellipse cx="257.4" cy="564.94" fill="#ADD1B2" rx="11" ry="11" style="stroke:#181818;stroke-width:1.0;"/><path d="M261.5094,570.94 L253.7906,570.94 L253.7906,558.5494 L261.5094,558.5494 L261.5094,560.7056 L256.2438,560.7056 L256.2438,563.3775 L261.0094,563.3775 L261.0094,565.5338 L256.2438,565.5338 L256.2438,568.7838 L261.5094,568.7838 L261.5094,570.94 Z " fill="#000000"/><text fill="#000000" font-family="sans-serif" font-size="14" lengthAdjust="spacing" textLength="53" x="275.6" y="569.7867">Rese&#241;a</text><line style="stroke:#181818;stroke-width:0.5;" x1="224.5" x2="349.5" y1="580.94" y2="580.94"/><text fill="#000000" font-family="sans-serif" font-size="14" lengthAdjust="spacing" textLength="76" x="229.5" y="597.9351">Calificaci&#243;n</text><text fill="#000000" font-family="sans-serif" font-size="14" lengthAdjust="spacing" textLength="72" x="229.5" y="614.232">Contenido</text><line style="stroke:#181818;stroke-width:0.5;" x1="224.5" x2="349.5" y1="621.5338" y2="621.5338"/><text fill="#000000" font-family="sans-serif" font-size="14" lengthAdjust="spacing" textLength="106" x="229.5" y="638.5289">ID_Rese&#241;a (PK)</text><text fill="#000000" font-family="sans-serif" font-size="14" lengthAdjust="spacing" textLength="104" x="229.5" y="654.8257">ID_Usuario (FK)</text><text fill="#000000" font-family="sans-serif" font-size="14" lengthAdjust="spacing" textLength="115" x="229.5" y="671.1226">ID_Producto (FK)</text></g><!--class mensaje--><g id="elem_mensaje"><rect codeLine="46" fill="#F1F1F1" height="129.4844" id="mensaje" rx="2.5" ry="2.5" style="stroke:#181818;stroke-width:0.5;" width="123" x="396.5" y="548.94"/><ellipse cx="426.35" cy="564.94" fill="#ADD1B2" rx="11" ry="11" style="stroke:#181818;stroke-width:1.0;"/><path d="M430.4594,570.94 L422.7406,570.94 L422.7406,558.5494 L430.4594,558.5494 L430.4594,560.7056 L425.1938,560.7056 L425.1938,563.3775 L429.9594,563.3775 L429.9594,565.5338 L425.1938,565.5338 L425.1938,568.7838 L430.4594,568.7838 L430.4594,570.94 Z " fill="#000000"/><text fill="#000000" font-family="sans-serif" font-size="14" lengthAdjust="spacing" textLength="58" x="443.65" y="569.7867">Mensaje</text><line style="stroke:#181818;stroke-width:0.5;" x1="397.5" x2="518.5" y1="580.94" y2="580.94"/><text fill="#000000" font-family="sans-serif" font-size="14" lengthAdjust="spacing" textLength="72" x="402.5" y="597.9351">Contenido</text><text fill="#000000" font-family="sans-serif" font-size="14" lengthAdjust="spacing" textLength="88" x="402.5" y="614.232">Fecha y hora</text><line style="stroke:#181818;stroke-width:0.5;" x1="397.5" x2="518.5" y1="621.5338" y2="621.5338"/><text fill="#000000" font-family="sans-serif" font-size="14" lengthAdjust="spacing" textLength="111" x="402.5" y="638.5289">ID_Mensaje (PK)</text><text fill="#000000" font-family="sans-serif" font-size="14" lengthAdjust="spacing" textLength="84" x="402.5" y="654.8257">ID_Chat (FK)</text><text fill="#000000" font-family="sans-serif" font-size="14" lengthAdjust="spacing" textLength="104" x="402.5" y="671.1226">ID_Usuario (FK)</text></g><!--link usuario to producto--><g id="link_usuario_producto"><path codeLine="53" d="M236.716,177.2162 C232.376,196.0762 233.4797,191.2469 228.8397,211.4469 " fill="none" id="usuario-producto" style="stroke:#181818;stroke-width:1.0;"/><line style="stroke:#181818;stroke-width:1.0;" x1="233.7149" x2="241.5111" y1="172.4211" y2="174.2151"/><line style="stroke:#181818;stroke-width:1.0;" x1="233.0421" x2="240.8383" y1="175.3447" y2="177.1387"/><line style="stroke:#181818;stroke-width:1.0;" x1="236.716" x2="238.51" y1="177.2162" y2="169.42"/><line style="stroke:#181818;stroke-width:1.0;" x1="226.601" x2="230.6577" y1="221.1931" y2="230.3332"/><line style="stroke:#181818;stroke-width:1.0;" x1="226.601" x2="218.9623" y1="221.1931" y2="227.6468"/><line style="stroke:#181818;stroke-width:1.0;" x1="226.601" x2="224.81" y1="221.1931" y2="228.99"/><ellipse cx="227.9442" cy="215.3453" fill="none" rx="4" ry="4" style="stroke:#181818;stroke-width:1.0;"/></g><!--link usuario to solicitud--><g id="link_usuario_solicitud"><path codeLine="54" d="M175.4373,147.3696 C148.3273,170.7096 126.67,195.31 111,229.08 C66.07,325.93 66.2162,433.6418 73.9262,514.2518 " fill="none" id="usuario-solicitud" style="stroke:#181818;stroke-width:1.0;"/><line style="stroke:#181818;stroke-width:1.0;" x1="175.8589" x2="181.0785" y1="141.7285" y2="147.7911"/><line style="stroke:#181818;stroke-width:1.0;" x1="173.5854" x2="178.805" y1="143.6858" y2="149.7485"/><line style="stroke:#181818;stroke-width:1.0;" x1="175.4373" x2="181.5" y1="147.3696" y2="142.15"/><line style="stroke:#181818;stroke-width:1.0;" x1="74.8783" x2="81.6127" y1="524.2063" y2="531.5987"/><line style="stroke:#181818;stroke-width:1.0;" x1="74.8783" x2="69.6673" y1="524.2063" y2="532.7413"/><line style="stroke:#181818;stroke-width:1.0;" x1="74.8783" x2="75.64" y1="524.2063" y2="532.17"/><ellipse cx="74.307" cy="518.2336" fill="none" rx="4" ry="4" style="stroke:#181818;stroke-width:1.0;"/></g><!--link producto to solicitud--><g id="link_producto_solicitud"><path codeLine="55" d="M142.7521,480.4816 C134.2821,500.5716 135.7933,496.9841 127.8833,515.7441 " fill="none" id="producto-solicitud" style="stroke:#181818;stroke-width:1.0;"/><line style="stroke:#181818;stroke-width:1.0;" x1="140.6202" x2="147.9919" y1="475.2419" y2="478.3498"/><line style="stroke:#181818;stroke-width:1.0;" x1="139.4548" x2="146.8264" y1="478.0062" y2="481.1141"/><line style="stroke:#181818;stroke-width:1.0;" x1="142.7521" x2="145.86" y1="480.4816" y2="473.11"/><line style="stroke:#181818;stroke-width:1.0;" x1="123.9981" x2="126.4186" y1="524.9585" y2="534.6611"/><line style="stroke:#181818;stroke-width:1.0;" x1="123.9981" x2="115.3614" y1="524.9585" y2="529.9989"/><line style="stroke:#181818;stroke-width:1.0;" x1="123.9981" x2="120.89" y1="524.9585" y2="532.33"/><ellipse cx="126.3293" cy="519.4298" fill="none" rx="4" ry="4" style="stroke:#181818;stroke-width:1.0;"/></g><!--link usuario to rese?a--><g id="link_usuario_rese&#241;a"><path codeLine="56" d="M275.8154,177.292 C279.3354,196.732 281.11,209.64 283,229.08 C293.9,341.11 292.7277,454.4093 290.2777,530.7093 " fill="none" id="usuario-rese&#241;a" style="stroke:#181818;stroke-width:1.0;"/><line style="stroke:#181818;stroke-width:1.0;" x1="271.1667" x2="279.0387" y1="174.0687" y2="172.6433"/><line style="stroke:#181818;stroke-width:1.0;" x1="271.7012" x2="279.5732" y1="177.0207" y2="175.5953"/><line style="stroke:#181818;stroke-width:1.0;" x1="275.8154" x2="274.39" y1="177.292" y2="169.42"/><line style="stroke:#181818;stroke-width:1.0;" x1="289.9567" x2="295.6969" y1="540.7041" y2="548.8926"/><line style="stroke:#181818;stroke-width:1.0;" x1="289.9567" x2="283.7031" y1="540.7041" y2="548.5074"/><line style="stroke:#181818;stroke-width:1.0;" x1="289.9567" x2="289.7" y1="540.7041" y2="548.7"/><ellipse cx="290.1493" cy="534.7072" fill="none" rx="4" ry="4" style="stroke:#181818;stroke-width:1.0;"/></g><!--link producto to rese?a--><g id="link_producto_rese&#241;a"><path codeLine="57" d="M241.4506,480.6721 C250.4506,506.7421 251.1274,508.7349 259.0174,531.5949 " fill="none" id="producto-rese&#241;a" style="stroke:#181818;stroke-width:1.0;"/><line style="stroke:#181818;stroke-width:1.0;" x1="236.3643" x2="243.9263" y1="478.1963" y2="475.5857"/><line style="stroke:#181818;stroke-width:1.0;" x1="237.3433" x2="244.9053" y1="481.0321" y2="478.4215"/><line style="stroke:#181818;stroke-width:1.0;" x1="241.4506" x2="238.84" y1="480.6721" y2="473.11"/><line style="stroke:#181818;stroke-width:1.0;" x1="262.2799" x2="270.5617" y1="541.0478" y2="546.6525"/><line style="stroke:#181818;stroke-width:1.0;" x1="262.2799" x2="259.2183" y1="541.0478" y2="550.5675"/><line style="stroke:#181818;stroke-width:1.0;" x1="262.2799" x2="264.89" y1="541.0478" y2="548.61"/><ellipse cx="260.3224" cy="535.3761" fill="none" rx="4" ry="4" style="stroke:#181818;stroke-width:1.0;"/></g><!--link chat to mensaje--><g id="link_chat_mensaje"><path codeLine="58" d="M458,415.81 C458,457.13 458,487.43 458,530.56 " fill="none" id="chat-mensaje" style="stroke:#181818;stroke-width:1.0;"/><line style="stroke:#181818;stroke-width:1.0;" x1="454" x2="462" y1="411.81" y2="411.81"/><line style="stroke:#181818;stroke-width:1.0;" x1="454" x2="462" y1="414.81" y2="414.81"/><line style="stroke:#181818;stroke-width:1.0;" x1="458" x2="458" y1="415.81" y2="407.81"/><line style="stroke:#181818;stroke-width:1.0;" x1="458" x2="464" y1="540.56" y2="548.56"/><line style="stroke:#181818;stroke-width:1.0;" x1="458" x2="452" y1="540.56" y2="548.56"/><line style="stroke:#181818;stroke-width:1.0;" x1="458" x2="458" y1="540.56" y2="548.56"/><ellipse cx="458" cy="534.56" fill="none" rx="4" ry="4" style="stroke:#181818;stroke-width:1.0;"/></g><!--link usuario to chat--><g id="link_usuario_chat"><path codeLine="59" d="M329.9354,183.6791 C361.0754,224.0991 376.075,243.5407 404.055,279.8607 " fill="none" id="usuario-chat" style="stroke:#181818;stroke-width:1.0;"/><line style="stroke:#181818;stroke-width:1.0;" x1="323.8324" x2="314.197" y1="175.7574" y2="173.0818"/><line style="stroke:#181818;stroke-width:1.0;" x1="323.8324" x2="323.703" y1="175.7574" y2="165.7582"/><line style="stroke:#181818;stroke-width:1.0;" x1="323.8324" x2="318.95" y1="175.7574" y2="169.42"/><ellipse cx="327.4942" cy="180.5104" fill="none" rx="4" ry="4" style="stroke:#181818;stroke-width:1.0;"/><line style="stroke:#181818;stroke-width:1.0;" x1="410.1578" x2="419.7931" y1="287.7825" y2="290.4583"/><line style="stroke:#181818;stroke-width:1.0;" x1="410.1578" x2="410.2869" y1="287.7825" y2="297.7817"/><line style="stroke:#181818;stroke-width:1.0;" x1="410.1578" x2="415.04" y1="287.7825" y2="294.12"/><ellipse cx="406.4961" cy="283.0294" fill="none" rx="4" ry="4" style="stroke:#181818;stroke-width:1.0;"/></g><!--SRC=[bPFDJiCm3CVlUufe9tRO0Tu0TGmXFbGnxOoyrbk3scHoKgHfsulm1Xmu86vS-s8qQTnrguR4gVRVZlspawAoqcx4S6vA8Ac70eme6rji1qBSJLv2I5p4zwDQUTB5Wh0s9cWIakj4Lj_APHQmGYLI537IKkOkjVefaBJJBERLnr8hNSkH9iAwtdpa7MK935PVCDWFCE34fDCoiGtFEZWCn44cwZ9ElHA1nPMcwXF4BIeaS3IpSd7G_nZanbX87MTCc4Xle76VQvLaxli0jF9-RalgKizqBXDfozHZ6_QOkmsV1p-Qhf7ORmlMSAPFFSKa0xTfGeFq1eT13dnH1jQZrQcMgPpO1xhi40NfYgNgFRUo095fyXqBL0PUiTFe6Vs5-bxKsDmkXFwrWWXokPG9yApkpQ2IHxCzDX2-PG3YbY7KQTdCF3ttUjholDQDdxNknh_6RZSUwstxCa_rzke7xTljHKwEX3Nr3h3khonel70kiTTUTYc_]--></g></svg>